<?xml version="1.0" encoding="UTF-8"?>
<svg id="Vrstva_1" xmlns="http://www.w3.org/2000/svg" viewBox="0 0 1000 230">
  <defs>
    <style>
      .cls-1, .cls-2 {
        fill: #fff;
      }

      .cls-2 {
        fill-rule: evenodd;
      }
    </style>
  </defs>
  <polygon class="cls-2" points="207.46 122.08 159.73 178.97 4.67 178.97 52.41 122.08 167.1 122.08 67.43 3.3 141.69 3.3 241.36 122.08 264.35 122.08 264.35 226.7 207.46 178.97 207.46 122.08"/>
  <g>
    <path class="cls-1" d="M303.29,115c0-26.57,20.4-45.59,47.85-45.59,15.24,0,27.96,5.54,36.27,15.62l-13.1,12.09c-5.92-6.8-13.35-10.33-22.16-10.33-16.5,0-28.21,11.58-28.21,28.21s11.71,28.21,28.21,28.21c8.81,0,16.24-3.53,22.16-10.45l13.1,12.09c-8.31,10.2-21.03,15.74-36.39,15.74-27.33,0-47.72-19.02-47.72-45.59Z"/>
    <path class="cls-1" d="M389.16,125.2c0-20.4,15.74-34.88,37.28-34.88s37.15,14.48,37.15,34.88-15.61,34.88-37.15,34.88-37.28-14.48-37.28-34.88ZM443.69,125.2c0-11.71-7.43-18.76-17.25-18.76s-17.38,7.05-17.38,18.76,7.56,18.76,17.38,18.76,17.25-7.05,17.25-18.76Z"/>
    <path class="cls-1" d="M587.99,120.29v38.78h-19.64v-35.76c0-10.96-4.91-15.99-12.85-15.99-8.81,0-14.98,5.67-14.98,17.75v34h-19.64v-35.76c0-10.96-4.66-15.99-12.84-15.99-8.69,0-14.86,5.67-14.86,17.75v34h-19.64v-67.75h18.76v7.81c5.04-5.79,12.59-8.81,21.28-8.81,9.45,0,17.51,3.65,22.29,11.08,5.41-6.93,14.23-11.08,24.43-11.08,16.12,0,27.7,9.32,27.7,29.97Z"/>
    <path class="cls-1" d="M716.93,120.29v38.78h-19.64v-35.76c0-10.96-4.91-15.99-12.85-15.99-8.81,0-14.98,5.67-14.98,17.75v34h-19.64v-35.76c0-10.96-4.66-15.99-12.84-15.99-8.69,0-14.86,5.67-14.86,17.75v34h-19.64v-67.75h18.76v7.81c5.04-5.79,12.59-8.81,21.28-8.81,9.45,0,17.51,3.65,22.29,11.08,5.41-6.93,14.23-11.08,24.43-11.08,16.12,0,27.7,9.32,27.7,29.97Z"/>
    <path class="cls-1" d="M791.34,120.41v38.66h-18.39v-8.44c-3.65,6.17-10.7,9.45-20.65,9.45-15.87,0-25.31-8.81-25.31-20.53s8.44-20.27,29.09-20.27h15.62c0-8.44-5.04-13.35-15.62-13.35-7.18,0-14.61,2.39-19.52,6.29l-7.05-13.73c7.43-5.29,18.39-8.18,29.21-8.18,20.65,0,32.61,9.57,32.61,30.09ZM771.7,137.67v-6.93h-13.47c-9.19,0-12.09,3.4-12.09,7.93,0,4.91,4.16,8.18,11.08,8.18,6.55,0,12.22-3.02,14.48-9.19Z"/>
    <path class="cls-1" d="M848,90.32v18.13c-1.64-.12-2.89-.25-4.41-.25-10.83,0-18.01,5.92-18.01,18.89v31.98h-19.64v-67.75h18.76v8.94c4.78-6.55,12.84-9.95,23.29-9.95Z"/>
    <path class="cls-1" d="M921.92,130.74h-51.25c1.89,8.44,9.07,13.6,19.39,13.6,7.18,0,12.34-2.14,17-6.55l10.45,11.33c-6.29,7.18-15.74,10.96-27.96,10.96-23.42,0-38.66-14.74-38.66-34.88s15.49-34.88,36.14-34.88,35.26,13.35,35.26,35.13c0,1.51-.25,3.65-.38,5.29ZM870.41,119.28h33.37c-1.38-8.56-7.81-14.1-16.62-14.1s-15.36,5.41-16.75,14.1Z"/>
    <path class="cls-1" d="M927.2,125.2c0-20.4,15.74-34.88,37.78-34.88,14.23,0,25.44,6.17,30.35,17.25l-15.24,8.18c-3.65-6.42-9.06-9.32-15.23-9.32-9.95,0-17.76,6.93-17.76,18.76s7.81,18.76,17.76,18.76c6.17,0,11.58-2.77,15.23-9.32l15.24,8.31c-4.91,10.83-16.12,17.13-30.35,17.13-22.04,0-37.78-14.48-37.78-34.88Z"/>
  </g>
</svg>